<svg width="40" height="60" viewBox="0 0 40 60" fill="none" xmlns="http://www.w3.org/2000/svg">
<path d="M20 5C11.716 5 5 11.716 5 20V40C5 48.2846 11.716 55 20 55C28.284 55 35 48.2846 35 40V20C35 11.716 28.284 5 20 5ZM20 0C31.0457 0 40 8.95429 40 20V40C40 51.0457 31.0457 60 20 60C8.95429 60 0 51.0457 0 40V20C0 8.95429 8.95429 0 20 0Z" fill="#47645D"/>
<path d="M17.4998 14.9998C17.4998 13.6192 18.6192 12.4998 19.9998 12.4998C21.3803 12.4998 22.4998 13.6192 22.4998 14.9998V28.3335C22.4998 29.7141 21.3803 30.8335 19.9998 30.8335C18.6192 30.8335 17.4998 29.7141 17.4998 28.3335V14.9998Z" fill="#47645D"/>
</svg>
