<svg width="58px" height="60px" viewBox="0 0 58 60" fill="none" xmlns="http://www.w3.org/2000/svg">
<path d="M1.46872 1.43994e-05H10.1156C10.9316 1.43994e-05 11.5837 0.650498 11.5837 1.46315V4.47116L46.4982 4.47172V1.46372C46.4982 0.650469 47.1509 0.000581513 47.9663 0.000581513L56.5319 1.43994e-05C57.3479 1.43994e-05 58 0.650498 58 1.46315V10.3249C58 11.1381 57.3473 11.788 56.5319 11.788L47.885 11.7886C47.069 11.7886 46.4169 11.1381 46.4169 10.3254V7.31742H30.3465C30.5098 10.8948 39.2381 27.7241 44.7856 37.6428C45.1116 38.2122 44.9489 38.9438 44.4595 39.4315C39.4834 43.6593 38.2599 47.8055 37.9333 49.9191H39.8094C40.6254 49.9191 41.2775 50.5696 41.2775 51.3822V58.5369C41.2775 59.3501 40.6248 60 39.8094 60H18.1102C17.2942 60 16.6421 59.3495 16.6421 58.5369V51.3822C16.6421 50.569 17.2948 49.9191 18.1102 49.9191H19.9863C19.6602 47.8054 18.4362 43.6587 13.4601 39.4315C12.9707 39.0248 12.8074 38.2122 13.134 37.6428C18.6809 27.7241 27.4098 10.8134 27.5731 7.31742H11.5842V10.3254C11.5842 11.1387 10.9315 11.7886 10.1161 11.7886H1.46922C0.653225 11.7886 0.00114059 11.1381 0.00114059 10.3254L3.8147e-06 1.46372C3.8147e-06 0.650469 0.652687 0 1.46867 0L1.46872 1.43994e-05ZM49.3538 8.86172H55.146V2.84527H49.3538V8.86172ZM28.9598 32.683C27.8992 32.683 27.0837 33.4963 27.0837 34.5528C27.0837 35.6099 27.8997 36.4226 28.9598 36.4226C30.0205 36.4226 30.8359 35.6094 30.8359 34.5528C30.8365 33.5774 29.9391 32.683 28.9598 32.683ZM19.4975 56.9922H38.3415V52.6832H19.4975V56.9922ZM22.8416 49.8375H35.078C35.4041 47.48 36.6281 42.7644 41.7675 37.9672C39.8096 34.3898 33.936 23.6583 30.4285 15.6906V30.0811C32.3046 30.6505 33.6912 32.4385 33.6912 34.5528C33.6912 37.1548 31.5704 39.2683 28.9598 39.2683C26.3493 39.2683 24.2284 37.1546 24.2284 34.5528C24.2284 32.4391 25.6151 30.7317 27.4912 30.0811L27.4917 15.6095C23.9022 23.5768 18.1108 34.3088 16.1527 37.9673C21.2915 42.7646 22.5156 47.4796 22.8416 49.8376L22.8416 49.8375ZM2.85551 8.86158H8.6477V6.17907V5.93521V5.69134V2.92724H2.85551V8.86158Z" fill="#47645D"/>
</svg>
