<svg width="60" height="62" viewBox="0 0 60 62" fill="none" xmlns="http://www.w3.org/2000/svg">
<mask id="path-1-outside-1_2_99" maskUnits="userSpaceOnUse" x="0" y="0" width="60" height="62" fill="black">
<rect fill="white" width="60" height="62"/>
<path d="M38.2126 10.4721C39.1806 9.80374 40.3739 9.54735 41.5309 9.75817C42.6879 9.96945 43.7142 10.6309 44.3841 11.598C44.7135 12.0509 45.3437 12.1577 45.8043 11.8392C46.2643 11.5202 46.3862 10.8923 46.0785 10.4246C45.4109 9.45617 45.1542 8.26211 45.3654 7.10448C45.5761 5.94729 46.2372 4.92086 47.2037 4.2506C47.6412 3.91643 47.7392 3.29779 47.4268 2.84481C47.114 2.39187 46.5012 2.26437 46.0343 2.55529C45.0714 3.21904 43.8864 3.47589 42.7353 3.27105C41.5848 3.06622 40.5607 2.41536 39.8864 1.46026C39.5708 0.986156 38.9309 0.857266 38.457 1.17257C37.9827 1.48834 37.8543 2.12862 38.1695 2.60275C38.8333 3.57215 39.0877 4.76435 38.8775 5.92056C38.6668 7.07637 38.0089 8.10289 37.046 8.77573C36.6141 9.11037 36.5184 9.72487 36.828 10.1755C37.138 10.6261 37.7457 10.7564 38.2127 10.4719L38.2126 10.4721ZM40.9093 6.29208C40.993 5.83455 41.0275 5.36919 41.0124 4.90432C41.8731 5.26244 42.801 5.43137 43.7331 5.39914C43.3752 6.26174 43.2059 7.19108 43.2362 8.12411C42.3755 7.76738 41.448 7.59799 40.5169 7.62745C40.6959 7.19754 40.8288 6.75013 40.9135 6.29213L40.9093 6.29208ZM49.5654 14.9697C50.5333 14.3013 51.7262 14.0445 52.8832 14.2553C54.0397 14.4666 55.066 15.1276 55.7359 16.0946C55.9967 16.4573 56.4605 16.6129 56.8869 16.4794C57.3134 16.3464 57.6069 15.9547 57.6147 15.5077C57.6142 15.2983 57.5503 15.0939 57.4311 14.9222C56.7609 13.9542 56.5032 12.7597 56.7139 11.6016C56.9251 10.4435 57.588 9.41654 58.5564 8.74817C59.0248 8.42274 59.1407 7.7797 58.8154 7.31116C58.4907 6.84303 57.848 6.72658 57.3797 7.05201C56.4127 7.72221 55.2189 7.98043 54.0619 7.76915C52.9045 7.55833 51.8786 6.8955 51.2101 5.92701C50.8853 5.45934 50.2431 5.34428 49.7757 5.66925C49.3083 5.99422 49.1933 6.63679 49.5181 7.1045C50.1819 8.07389 50.4359 9.26656 50.2256 10.4223C50.0149 11.5786 49.3566 12.6046 48.3937 13.2775C47.965 13.6144 47.8729 14.2271 48.1835 14.6754C48.494 15.1237 49.0994 15.2526 49.5654 14.9695V14.9697ZM52.2612 10.7897C52.3436 10.333 52.3781 9.86953 52.3643 9.40603C53.2241 9.75954 54.1483 9.92801 55.0776 9.90085C54.7224 10.7621 54.5536 11.6891 54.583 12.6207C53.7232 12.2645 52.7977 12.0956 51.8674 12.125C52.0459 11.6951 52.1779 11.2472 52.2612 10.7897L52.2612 10.7897ZM57.3796 18.971C56.4103 19.6353 55.2188 19.8898 54.0632 19.679C52.9076 19.4682 51.8818 18.8095 51.2092 17.846C50.8817 17.389 50.2482 17.279 49.7858 17.5989C49.3235 17.9188 49.2025 18.5503 49.514 19.0184C50.1819 19.9869 50.4386 21.181 50.2275 22.3381C50.0168 23.4958 49.3562 24.5222 48.3897 25.1925C47.9329 25.5202 47.8229 26.154 48.1426 26.6166C48.4624 27.0792 49.0935 27.2003 49.5614 26.8887C50.5293 26.2208 51.7222 25.9639 52.8792 26.1748C54.0357 26.3856 55.0621 27.047 55.7319 28.0136C56.0595 28.4707 56.693 28.5807 57.1553 28.2608C57.6176 27.9409 57.7386 27.3093 57.4272 26.8412C56.7634 25.8718 56.5094 24.6791 56.7197 23.5229C56.9304 22.3667 57.5887 21.3402 58.5516 20.6673C59.0084 20.3396 59.1183 19.7057 58.7986 19.2431C58.4789 18.7805 57.8477 18.6595 57.3798 18.9711L57.3796 18.971ZM54.6838 23.1511C54.6 23.6091 54.5655 24.0749 54.5807 24.5398C53.7195 24.183 52.792 24.0141 51.8605 24.0449C52.2184 23.1823 52.3881 22.2525 52.3578 21.319C53.219 21.6758 54.146 21.8452 55.0775 21.8157C54.9004 22.2456 54.7698 22.6935 54.6879 23.151L54.6838 23.1511ZM31.1675 3.61731C30.4917 2.63964 29.3458 2.09746 28.1617 2.19409C26.9775 2.29121 25.9352 3.01249 25.4268 4.08725C24.9184 5.16158 25.0219 6.42606 25.6977 7.40375L26.4996 8.56371L13.5343 28.0998L8.43937 30.5012H8.43983C8.16703 30.6315 7.96415 30.8745 7.88503 31.1663C7.8059 31.4586 7.85789 31.7707 8.02764 32.0211L8.56542 32.7995L2.37333 37.0867C1.67868 37.5728 1.20392 38.3129 1.05208 39.1474C0.900262 39.9815 1.08336 40.8423 1.56226 41.5419L6.98059 49.378C7.46548 50.0735 8.20516 50.5495 9.03885 50.7022C9.8729 50.8546 10.7327 50.6714 11.4324 50.1927L19.0138 60.5766C19.3432 61.0286 19.973 61.1349 20.4326 60.8168L22.954 59.07C23.7669 58.5108 24.307 57.6353 24.4432 56.6576C24.5789 55.6799 24.2978 54.6903 23.6685 53.9302L16.6198 46.6022L17.6305 45.903L18.1683 46.6814H18.1687C18.3426 46.9291 18.6154 47.0878 18.9163 47.1178C19.2167 47.1472 19.5153 47.0441 19.7338 46.8352L23.7784 42.9171L46.621 37.672L47.4229 38.8319C48.0987 39.8096 49.2446 40.3522 50.4287 40.2551C51.6129 40.1585 52.6552 39.4367 53.1637 38.3624C53.672 37.2877 53.5685 36.0236 52.8927 35.0459L31.1675 3.61731ZM8.67592 48.2102L3.25852 40.374C2.90015 39.8557 3.02989 39.1445 3.54788 38.786L9.74232 34.4987L16.4579 44.2147L13.4212 46.3169L10.2626 48.5029C9.74324 48.8591 9.03429 48.728 8.67592 48.2101V48.2102ZM22.409 56.3763C22.3534 57.3218 20.7479 58.0021 20.0863 58.554L13.1306 49.0239L14.904 47.7949L22.1174 55.2918V55.2913C22.3631 55.596 22.4689 55.9896 22.4091 56.3762L22.409 56.3763ZM19.1731 44.5126L10.4195 31.8499L13.884 30.2158L21.9218 41.8452L19.1731 44.5126ZM23.7173 40.815L15.4799 28.8982L27.7621 10.3896L45.3581 35.847L23.7173 40.815ZM50.8785 37.9804C50.3025 38.374 49.5177 38.2308 49.1184 37.6587C44.9509 31.6292 32.5589 13.7025 28.5924 7.96507L27.394 6.22969C27.2026 5.9535 27.129 5.61289 27.1888 5.28193C27.2486 4.95144 27.4372 4.65822 27.7132 4.46674C28.2883 4.06812 29.0772 4.21127 29.4757 4.78618L51.1982 36.2191C51.5952 36.794 51.4522 37.5819 50.879 37.9811L50.8785 37.9804Z"/>
</mask>
<path d="M38.2126 10.4721C39.1806 9.80374 40.3739 9.54735 41.5309 9.75817C42.6879 9.96945 43.7142 10.6309 44.3841 11.598C44.7135 12.0509 45.3437 12.1577 45.8043 11.8392C46.2643 11.5202 46.3862 10.8923 46.0785 10.4246C45.4109 9.45617 45.1542 8.26211 45.3654 7.10448C45.5761 5.94729 46.2372 4.92086 47.2037 4.2506C47.6412 3.91643 47.7392 3.29779 47.4268 2.84481C47.114 2.39187 46.5012 2.26437 46.0343 2.55529C45.0714 3.21904 43.8864 3.47589 42.7353 3.27105C41.5848 3.06622 40.5607 2.41536 39.8864 1.46026C39.5708 0.986156 38.9309 0.857266 38.457 1.17257C37.9827 1.48834 37.8543 2.12862 38.1695 2.60275C38.8333 3.57215 39.0877 4.76435 38.8775 5.92056C38.6668 7.07637 38.0089 8.10289 37.046 8.77573C36.6141 9.11037 36.5184 9.72487 36.828 10.1755C37.138 10.6261 37.7457 10.7564 38.2127 10.4719L38.2126 10.4721ZM40.9093 6.29208C40.993 5.83455 41.0275 5.36919 41.0124 4.90432C41.8731 5.26244 42.801 5.43137 43.7331 5.39914C43.3752 6.26174 43.2059 7.19108 43.2362 8.12411C42.3755 7.76738 41.448 7.59799 40.5169 7.62745C40.6959 7.19754 40.8288 6.75013 40.9135 6.29213L40.9093 6.29208ZM49.5654 14.9697C50.5333 14.3013 51.7262 14.0445 52.8832 14.2553C54.0397 14.4666 55.066 15.1276 55.7359 16.0946C55.9967 16.4573 56.4605 16.6129 56.8869 16.4794C57.3134 16.3464 57.6069 15.9547 57.6147 15.5077C57.6142 15.2983 57.5503 15.0939 57.4311 14.9222C56.7609 13.9542 56.5032 12.7597 56.7139 11.6016C56.9251 10.4435 57.588 9.41654 58.5564 8.74817C59.0248 8.42274 59.1407 7.7797 58.8154 7.31116C58.4907 6.84303 57.848 6.72658 57.3797 7.05201C56.4127 7.72221 55.2189 7.98043 54.0619 7.76915C52.9045 7.55833 51.8786 6.8955 51.2101 5.92701C50.8853 5.45934 50.2431 5.34428 49.7757 5.66925C49.3083 5.99422 49.1933 6.63679 49.5181 7.1045C50.1819 8.07389 50.4359 9.26656 50.2256 10.4223C50.0149 11.5786 49.3566 12.6046 48.3937 13.2775C47.965 13.6144 47.8729 14.2271 48.1835 14.6754C48.494 15.1237 49.0994 15.2526 49.5654 14.9695V14.9697ZM52.2612 10.7897C52.3436 10.333 52.3781 9.86953 52.3643 9.40603C53.2241 9.75954 54.1483 9.92801 55.0776 9.90085C54.7224 10.7621 54.5536 11.6891 54.583 12.6207C53.7232 12.2645 52.7977 12.0956 51.8674 12.125C52.0459 11.6951 52.1779 11.2472 52.2612 10.7897L52.2612 10.7897ZM57.3796 18.971C56.4103 19.6353 55.2188 19.8898 54.0632 19.679C52.9076 19.4682 51.8818 18.8095 51.2092 17.846C50.8817 17.389 50.2482 17.279 49.7858 17.5989C49.3235 17.9188 49.2025 18.5503 49.514 19.0184C50.1819 19.9869 50.4386 21.181 50.2275 22.3381C50.0168 23.4958 49.3562 24.5222 48.3897 25.1925C47.9329 25.5202 47.8229 26.154 48.1426 26.6166C48.4624 27.0792 49.0935 27.2003 49.5614 26.8887C50.5293 26.2208 51.7222 25.9639 52.8792 26.1748C54.0357 26.3856 55.0621 27.047 55.7319 28.0136C56.0595 28.4707 56.693 28.5807 57.1553 28.2608C57.6176 27.9409 57.7386 27.3093 57.4272 26.8412C56.7634 25.8718 56.5094 24.6791 56.7197 23.5229C56.9304 22.3667 57.5887 21.3402 58.5516 20.6673C59.0084 20.3396 59.1183 19.7057 58.7986 19.2431C58.4789 18.7805 57.8477 18.6595 57.3798 18.9711L57.3796 18.971ZM54.6838 23.1511C54.6 23.6091 54.5655 24.0749 54.5807 24.5398C53.7195 24.183 52.792 24.0141 51.8605 24.0449C52.2184 23.1823 52.3881 22.2525 52.3578 21.319C53.219 21.6758 54.146 21.8452 55.0775 21.8157C54.9004 22.2456 54.7698 22.6935 54.6879 23.151L54.6838 23.1511ZM31.1675 3.61731C30.4917 2.63964 29.3458 2.09746 28.1617 2.19409C26.9775 2.29121 25.9352 3.01249 25.4268 4.08725C24.9184 5.16158 25.0219 6.42606 25.6977 7.40375L26.4996 8.56371L13.5343 28.0998L8.43937 30.5012H8.43983C8.16703 30.6315 7.96415 30.8745 7.88503 31.1663C7.8059 31.4586 7.85789 31.7707 8.02764 32.0211L8.56542 32.7995L2.37333 37.0867C1.67868 37.5728 1.20392 38.3129 1.05208 39.1474C0.900262 39.9815 1.08336 40.8423 1.56226 41.5419L6.98059 49.378C7.46548 50.0735 8.20516 50.5495 9.03885 50.7022C9.8729 50.8546 10.7327 50.6714 11.4324 50.1927L19.0138 60.5766C19.3432 61.0286 19.973 61.1349 20.4326 60.8168L22.954 59.07C23.7669 58.5108 24.307 57.6353 24.4432 56.6576C24.5789 55.6799 24.2978 54.6903 23.6685 53.9302L16.6198 46.6022L17.6305 45.903L18.1683 46.6814H18.1687C18.3426 46.9291 18.6154 47.0878 18.9163 47.1178C19.2167 47.1472 19.5153 47.0441 19.7338 46.8352L23.7784 42.9171L46.621 37.672L47.4229 38.8319C48.0987 39.8096 49.2446 40.3522 50.4287 40.2551C51.6129 40.1585 52.6552 39.4367 53.1637 38.3624C53.672 37.2877 53.5685 36.0236 52.8927 35.0459L31.1675 3.61731ZM8.67592 48.2102L3.25852 40.374C2.90015 39.8557 3.02989 39.1445 3.54788 38.786L9.74232 34.4987L16.4579 44.2147L13.4212 46.3169L10.2626 48.5029C9.74324 48.8591 9.03429 48.728 8.67592 48.2101V48.2102ZM22.409 56.3763C22.3534 57.3218 20.7479 58.0021 20.0863 58.554L13.1306 49.0239L14.904 47.7949L22.1174 55.2918V55.2913C22.3631 55.596 22.4689 55.9896 22.4091 56.3762L22.409 56.3763ZM19.1731 44.5126L10.4195 31.8499L13.884 30.2158L21.9218 41.8452L19.1731 44.5126ZM23.7173 40.815L15.4799 28.8982L27.7621 10.3896L45.3581 35.847L23.7173 40.815ZM50.8785 37.9804C50.3025 38.374 49.5177 38.2308 49.1184 37.6587C44.9509 31.6292 32.5589 13.7025 28.5924 7.96507L27.394 6.22969C27.2026 5.9535 27.129 5.61289 27.1888 5.28193C27.2486 4.95144 27.4372 4.65822 27.7132 4.46674C28.2883 4.06812 29.0772 4.21127 29.4757 4.78618L51.1982 36.2191C51.5952 36.794 51.4522 37.5819 50.879 37.9811L50.8785 37.9804Z" fill="#47645D"/>
<path d="M38.2126 10.4721C39.1806 9.80374 40.3739 9.54735 41.5309 9.75817C42.6879 9.96945 43.7142 10.6309 44.3841 11.598C44.7135 12.0509 45.3437 12.1577 45.8043 11.8392C46.2643 11.5202 46.3862 10.8923 46.0785 10.4246C45.4109 9.45617 45.1542 8.26211 45.3654 7.10448C45.5761 5.94729 46.2372 4.92086 47.2037 4.2506C47.6412 3.91643 47.7392 3.29779 47.4268 2.84481C47.114 2.39187 46.5012 2.26437 46.0343 2.55529C45.0714 3.21904 43.8864 3.47589 42.7353 3.27105C41.5848 3.06622 40.5607 2.41536 39.8864 1.46026C39.5708 0.986156 38.9309 0.857266 38.457 1.17257C37.9827 1.48834 37.8543 2.12862 38.1695 2.60275C38.8333 3.57215 39.0877 4.76435 38.8775 5.92056C38.6668 7.07637 38.0089 8.10289 37.046 8.77573C36.6141 9.11037 36.5184 9.72487 36.828 10.1755C37.138 10.6261 37.7457 10.7564 38.2127 10.4719L38.2126 10.4721ZM40.9093 6.29208C40.993 5.83455 41.0275 5.36919 41.0124 4.90432C41.8731 5.26244 42.801 5.43137 43.7331 5.39914C43.3752 6.26174 43.2059 7.19108 43.2362 8.12411C42.3755 7.76738 41.448 7.59799 40.5169 7.62745C40.6959 7.19754 40.8288 6.75013 40.9135 6.29213L40.9093 6.29208ZM49.5654 14.9697C50.5333 14.3013 51.7262 14.0445 52.8832 14.2553C54.0397 14.4666 55.066 15.1276 55.7359 16.0946C55.9967 16.4573 56.4605 16.6129 56.8869 16.4794C57.3134 16.3464 57.6069 15.9547 57.6147 15.5077C57.6142 15.2983 57.5503 15.0939 57.4311 14.9222C56.7609 13.9542 56.5032 12.7597 56.7139 11.6016C56.9251 10.4435 57.588 9.41654 58.5564 8.74817C59.0248 8.42274 59.1407 7.7797 58.8154 7.31116C58.4907 6.84303 57.848 6.72658 57.3797 7.05201C56.4127 7.72221 55.2189 7.98043 54.0619 7.76915C52.9045 7.55833 51.8786 6.8955 51.2101 5.92701C50.8853 5.45934 50.2431 5.34428 49.7757 5.66925C49.3083 5.99422 49.1933 6.63679 49.5181 7.1045C50.1819 8.07389 50.4359 9.26656 50.2256 10.4223C50.0149 11.5786 49.3566 12.6046 48.3937 13.2775C47.965 13.6144 47.8729 14.2271 48.1835 14.6754C48.494 15.1237 49.0994 15.2526 49.5654 14.9695V14.9697ZM52.2612 10.7897C52.3436 10.333 52.3781 9.86953 52.3643 9.40603C53.2241 9.75954 54.1483 9.92801 55.0776 9.90085C54.7224 10.7621 54.5536 11.6891 54.583 12.6207C53.7232 12.2645 52.7977 12.0956 51.8674 12.125C52.0459 11.6951 52.1779 11.2472 52.2612 10.7897L52.2612 10.7897ZM57.3796 18.971C56.4103 19.6353 55.2188 19.8898 54.0632 19.679C52.9076 19.4682 51.8818 18.8095 51.2092 17.846C50.8817 17.389 50.2482 17.279 49.7858 17.5989C49.3235 17.9188 49.2025 18.5503 49.514 19.0184C50.1819 19.9869 50.4386 21.181 50.2275 22.3381C50.0168 23.4958 49.3562 24.5222 48.3897 25.1925C47.9329 25.5202 47.8229 26.154 48.1426 26.6166C48.4624 27.0792 49.0935 27.2003 49.5614 26.8887C50.5293 26.2208 51.7222 25.9639 52.8792 26.1748C54.0357 26.3856 55.0621 27.047 55.7319 28.0136C56.0595 28.4707 56.693 28.5807 57.1553 28.2608C57.6176 27.9409 57.7386 27.3093 57.4272 26.8412C56.7634 25.8718 56.5094 24.6791 56.7197 23.5229C56.9304 22.3667 57.5887 21.3402 58.5516 20.6673C59.0084 20.3396 59.1183 19.7057 58.7986 19.2431C58.4789 18.7805 57.8477 18.6595 57.3798 18.9711L57.3796 18.971ZM54.6838 23.1511C54.6 23.6091 54.5655 24.0749 54.5807 24.5398C53.7195 24.183 52.792 24.0141 51.8605 24.0449C52.2184 23.1823 52.3881 22.2525 52.3578 21.319C53.219 21.6758 54.146 21.8452 55.0775 21.8157C54.9004 22.2456 54.7698 22.6935 54.6879 23.151L54.6838 23.1511ZM31.1675 3.61731C30.4917 2.63964 29.3458 2.09746 28.1617 2.19409C26.9775 2.29121 25.9352 3.01249 25.4268 4.08725C24.9184 5.16158 25.0219 6.42606 25.6977 7.40375L26.4996 8.56371L13.5343 28.0998L8.43937 30.5012H8.43983C8.16703 30.6315 7.96415 30.8745 7.88503 31.1663C7.8059 31.4586 7.85789 31.7707 8.02764 32.0211L8.56542 32.7995L2.37333 37.0867C1.67868 37.5728 1.20392 38.3129 1.05208 39.1474C0.900262 39.9815 1.08336 40.8423 1.56226 41.5419L6.98059 49.378C7.46548 50.0735 8.20516 50.5495 9.03885 50.7022C9.8729 50.8546 10.7327 50.6714 11.4324 50.1927L19.0138 60.5766C19.3432 61.0286 19.973 61.1349 20.4326 60.8168L22.954 59.07C23.7669 58.5108 24.307 57.6353 24.4432 56.6576C24.5789 55.6799 24.2978 54.6903 23.6685 53.9302L16.6198 46.6022L17.6305 45.903L18.1683 46.6814H18.1687C18.3426 46.9291 18.6154 47.0878 18.9163 47.1178C19.2167 47.1472 19.5153 47.0441 19.7338 46.8352L23.7784 42.9171L46.621 37.672L47.4229 38.8319C48.0987 39.8096 49.2446 40.3522 50.4287 40.2551C51.6129 40.1585 52.6552 39.4367 53.1637 38.3624C53.672 37.2877 53.5685 36.0236 52.8927 35.0459L31.1675 3.61731ZM8.67592 48.2102L3.25852 40.374C2.90015 39.8557 3.02989 39.1445 3.54788 38.786L9.74232 34.4987L16.4579 44.2147L13.4212 46.3169L10.2626 48.5029C9.74324 48.8591 9.03429 48.728 8.67592 48.2101V48.2102ZM22.409 56.3763C22.3534 57.3218 20.7479 58.0021 20.0863 58.554L13.1306 49.0239L14.904 47.7949L22.1174 55.2918V55.2913C22.3631 55.596 22.4689 55.9896 22.4091 56.3762L22.409 56.3763ZM19.1731 44.5126L10.4195 31.8499L13.884 30.2158L21.9218 41.8452L19.1731 44.5126ZM23.7173 40.815L15.4799 28.8982L27.7621 10.3896L45.3581 35.847L23.7173 40.815ZM50.8785 37.9804C50.3025 38.374 49.5177 38.2308 49.1184 37.6587C44.9509 31.6292 32.5589 13.7025 28.5924 7.96507L27.394 6.22969C27.2026 5.9535 27.129 5.61289 27.1888 5.28193C27.2486 4.95144 27.4372 4.65822 27.7132 4.46674C28.2883 4.06812 29.0772 4.21127 29.4757 4.78618L51.1982 36.2191C51.5952 36.794 51.4522 37.5819 50.879 37.9811L50.8785 37.9804Z" stroke="#47645D" stroke-width="0.4" mask="url(#path-1-outside-1_2_99)"/>
</svg>
