<svg width="60" height="53" viewBox="0 0 60 53" fill="none" xmlns="http://www.w3.org/2000/svg">
<path d="M49.7015 15.2552C48.806 14.3547 47.3882 14.3547 46.5672 15.2552C45.6716 16.1557 45.6716 17.5813 46.5672 18.4069L54.6269 26.5113L46.5672 34.6156C45.6716 35.5161 45.6716 36.9417 46.5672 37.7673C47.0149 38.2176 47.6121 38.4427 48.1343 38.4427C48.6565 38.4427 49.2537 38.2176 49.7015 37.7673L59.3284 28.0871C60.2239 27.1866 60.2239 25.761 59.3284 24.9354L49.7015 15.2552Z" fill="#47645D"/>
<path d="M38.2091 0.0972367C37.0152 -0.278137 35.7464 0.472611 35.4481 1.67309L21.7158 50.1488C21.3425 51.3493 22.0891 52.6251 23.283 52.9251C23.5069 53 23.6563 53 23.8802 53C24.8502 53 25.7457 52.3246 26.0446 51.3493L39.7013 2.87357C40.0746 1.67309 39.403 0.397231 38.2091 0.0972406V0.0972367Z" fill="#47645D"/>
<path d="M13.4329 15.2552C12.5373 14.3547 11.1196 14.3547 10.2985 15.2552L0.671643 24.9354C-0.223881 25.8359 -0.223881 27.2615 0.671643 28.0871L10.2985 37.7673C10.7463 38.2176 11.3435 38.4427 11.8657 38.4427C12.3879 38.4427 12.9851 38.2176 13.4329 37.7673C14.3284 36.8669 14.3284 35.4413 13.4329 34.6156L5.37314 26.5113L13.4329 18.4069C14.3284 17.5813 14.3284 16.1557 13.4329 15.2552Z" fill="#47645D"/>
</svg>
